# xmcd CD database file
#
# Track frame offsets:
#	150
#	14136
#	27187
#	43289
#	59924
#	76184
#	92071
#	105899
#	117251
#	130073
#	143102
#	156569
#	169649
#	183711
#	195549
#	208918
#
# Disc length: 2961 seconds
#
# Revision: 0
# Processed by: cddbd v1.5.1PL0 Copyright (c) Steve Scherf et al.
# Submitted via: CDex 1.51
#
DISCID=e70b8f10
DTITLE=Leroy Carr - Blues Before Sunrise
DYEAR=2004
DGENRE=Blues
TTITLE0=Midnight Hour Blues
TTITLE1=Mean Mistreater Mama
TTITLE2=Hurry Down Sunshine
TTITLE3=Corn Likker Blues
TTITLE4=Shady Lane Blues
TTITLE5=Blues Before Sunrise
TTITLE6=Take A Walk Around The Corner
TTITLE7=My Woman's Gone Wrong
TTITLE8=Southbound Blues
TTITLE9=Barrelhouse Woman
TTITLE10=I Believe I'll Make A Change
TTITLE11=Bobo Stomp
TTITLE12=Big Four Blues
TTITLE13=Hustler's Blues
TTITLE14=Shining Pistol
TTITLE15=It's Too Short
EXTD=YEAR: 2004
EXTT0=
EXTT1=
EXTT2=
EXTT3=
EXTT4=
EXTT5=
EXTT6=
EXTT7=
EXTT8=
EXTT9=
EXTT10=
EXTT11=
EXTT12=
EXTT13=
EXTT14=
EXTT15=
PLAYORDER=
